# xmcd
#
# Track frame offsets:
#	150
#	11385
#	32445
#	34262
#	56227
#	68136
#	80566
#	93625
#	110943
#	118998
#	134075
#	149704
#	160451
#	174052
#	191762
#	211174
#	226245
#	241790
#
# Disc length: 3536 seconds
#
# Revision: 0
# Processed by: cddbd v1.4PL0 Copyright (c) Steve Scherf et al.
# Submitted via: dBpowerAMP V4.0
#
DISCID=070dce12
DTITLE=Calexico - Feast Of Wire
DYEAR=2003
DGENRE=Country
TTITLE0=Sunken Waltz
TTITLE1=Quattro (World Drifts In)
TTITLE2=Stucco
TTITLE3=Black Heart
TTITLE4=Pepita
TTITLE5=Not Even Steve Nicks...
TTITLE6=Close Behind
TTITLE7=Woven Birds
TTITLE8=The Book And The Canal
TTITLE9=Attack El Robot! Attack!
TTITLE10=Across The Wire
TTITLE11=Dub Latina
TTITLE12=Gùero Canelo
TTITLE13=Whipping The Horse's Eyes
TTITLE14=Crumble
TTITLE15=No Doze
TTITLE16=Bonus Track1
TTITLE17=Bonus Track2
EXTD=my name is avsar, from istanbul,turkey\nthat's the last album of calexico 
EXTT0=
EXTT1=
EXTT2=
EXTT3=
EXTT4=
EXTT5=
EXTT6=
EXTT7=
EXTT8=
EXTT9=
EXTT10=
EXTT11=
EXTT12=
EXTT13=
EXTT14=
EXTT15=
EXTT16=
EXTT17=
PLAYORDER=
